<svg width="941" height="367" viewBox="0 0 941 367" fill="none" xmlns="http://www.w3.org/2000/svg">
<rect x="18" y="18" width="905" height="331" stroke="white" stroke-width="36"/>
<path d="M73.216 211.536C73.216 172.368 98.048 145.232 134.656 145.232C166.144 145.232 188.16 163.152 192.512 191.056H168.448C164.352 175.184 151.552 166.736 135.424 166.736C112.64 166.736 97.024 184.144 97.024 211.28C97.024 238.16 111.616 255.568 134.4 255.568C151.552 255.568 164.352 246.608 168.704 231.76H192.768C187.904 258.896 164.608 277.072 134.4 277.072C97.536 277.072 73.216 250.96 73.216 211.536ZM209.966 211.28C209.966 172.624 237.614 145.488 275.246 145.488C312.622 145.488 340.27 172.624 340.27 211.28C340.27 249.936 312.622 277.072 275.246 277.072C237.614 277.072 209.966 249.936 209.966 211.28ZM234.286 211.28C234.286 237.392 250.926 255.568 275.246 255.568C299.31 255.568 316.206 237.392 316.206 211.28C316.206 185.168 299.31 166.992 275.246 166.992C250.926 166.992 234.286 185.168 234.286 211.28ZM390.972 274H366.908V148.816H388.668L391.228 168.016C399.164 153.68 415.036 145.232 432.7 145.232C465.724 145.232 480.828 165.456 480.828 197.456V274H456.764V202.832C456.764 177.488 444.988 167.248 426.556 167.248C404.028 167.248 390.972 183.376 390.972 207.696V274ZM549.486 274H525.422V169.04H500.846V148.816H525.422V109.648H549.486V148.816H574.062V169.04H549.486V274ZM667.338 147.792V169.808H656.586C633.802 169.808 619.722 183.632 619.722 207.696V274H595.658V149.072H618.186L619.722 168.016C624.842 154.96 637.386 146.256 654.538 146.256C658.89 146.256 662.474 146.768 667.338 147.792ZM677.216 211.28C677.216 172.624 704.864 145.488 742.496 145.488C779.872 145.488 807.52 172.624 807.52 211.28C807.52 249.936 779.872 277.072 742.496 277.072C704.864 277.072 677.216 249.936 677.216 211.28ZM701.536 211.28C701.536 237.392 718.176 255.568 742.496 255.568C766.56 255.568 783.456 237.392 783.456 211.28C783.456 185.168 766.56 166.992 742.496 166.992C718.176 166.992 701.536 185.168 701.536 211.28ZM858.734 274H834.67V85.584H858.734V274Z" fill="white"/>
</svg>
