<svg width="767" height="767" viewBox="0 0 767 767" fill="none" xmlns="http://www.w3.org/2000/svg">
<rect width="767" height="767" fill="#006783"/>
<rect x="151" y="218" width="465" height="331" fill="#006783"/>
<rect x="151" y="218" width="465" height="331" stroke="white" stroke-width="36"/>
<path d="M206.216 411.536C206.216 372.368 231.048 345.232 267.656 345.232C299.144 345.232 321.16 363.152 325.512 391.056H301.448C297.352 375.184 284.552 366.736 268.424 366.736C245.64 366.736 230.024 384.144 230.024 411.28C230.024 438.16 244.616 455.568 267.4 455.568C284.552 455.568 297.352 446.608 301.704 431.76H325.768C320.904 458.896 297.608 477.072 267.4 477.072C230.536 477.072 206.216 450.96 206.216 411.536ZM386.486 474H362.422V369.04H337.846V348.816H362.422V309.648H386.486V348.816H411.062V369.04H386.486V474ZM504.338 347.792V369.808H493.586C470.802 369.808 456.722 383.632 456.722 407.696V474H432.658V349.072H455.186L456.722 368.016C461.842 354.96 474.386 346.256 491.538 346.256C495.89 346.256 499.474 346.768 504.338 347.792ZM551.484 474H527.42V285.584H551.484V474Z" fill="white"/>
</svg>
